<svg version="1.2" xmlns="http://www.w3.org/2000/svg" viewBox="0 0 1280 1280" width="1280" height="1280">
	<title>Nouveau projet</title>
	<style>
		path {
			fill: #000;
		}

		@media (prefers-color-scheme: dark) {
			path {
				fill: #FFF;
			}
		}
	</style>
	<path id="CF" class="s0"
		d="m356.8 946.9q-102.9 0-176.5-37.3-73.6-38.1-112.7-106.4-39-69.2-39-162.3 0-93.2 39-161.5 39.1-69.2 112.7-106.4 73.6-38.2 176.5-38.2 100.2 0 171.2 30.2 71.8 30.2 110 86.9 38.1 56.8 38.1 136.6v15.1h-186.3v-15.1q0-50.5-28.3-71.8-28.4-22.2-102.1-22.2-60.3 0-94 12.4-32.8 11.5-46.1 43.5-13.3 31-13.3 90.5 0 58.5 13.3 90.4 13.3 32 46.1 44.4 33.7 11.5 94 11.5 73.7 0 102.1-21.3 28.3-22.2 28.3-72.7v-15.1h186.3v15.1q0 78.9-38.1 136.6-38.2 56.8-110 86.9-71 30.2-171.2 30.2zm530.4-603.2v594.3h-166.7v-594.3zm351.2 238.6v149h-472.8v-149zm13.3-238.6v149.9h-486v-149.9z" />
</svg>