<svg version="1.2" xmlns="http://www.w3.org/2000/svg" viewBox="0 0 1038 77" width="1038" height="77">
	<title>Nouveau projet</title>
	<style>
		.s0 { fill: #000000 } 
	</style>
	<path id="CREATIVE-FRONT" class="s0" d="m41.6 77.1q-12.8 0-22-4.7-9.3-4.7-14.1-13.3-4.9-8.6-4.9-20.3 0-11.6 4.9-20.2 4.8-8.6 14.1-13.3 9.2-4.8 22-4.8 12.6 0 21.5 3.8 9 3.8 13.7 10.9 4.8 7.1 4.8 17.1v1.9h-23.3v-1.9q0-6.4-3.6-9-3.5-2.8-12.7-2.8-7.6 0-11.8 1.6-4.1 1.4-5.8 5.4-1.6 3.9-1.6 11.3 0 7.3 1.6 11.3 1.7 4 5.8 5.6 4.2 1.4 11.8 1.4 9.2 0 12.7-2.6 3.6-2.8 3.6-9.1v-1.9h23.3v1.9q0 9.8-4.8 17.1-4.7 7.1-13.7 10.8-8.9 3.8-21.5 3.8zm66.4-26.4v25.3h-20.8v-74.4h43.4q9.8 0 16.5 2.7 6.7 2.7 10 7.8 3.4 5 3.4 12.3 0 5.9-2.1 10.2-2 4.2-6.4 6.9-4.5 2.5-11.6 3.4v1.1q5.8 1.5 8.2 4.4 2.6 2.7 4.7 7l9.2 18.6h-24.1l-8.8-18.2q-1.4-2.8-2.8-4.3-1.5-1.6-3.8-2.1-2.3-0.7-6.4-0.7zm22.3-30.3h-22.3v14.8h22.3q4.5 0 6.4-1.4 1.9-1.3 1.9-6.1 0-4.4-1.9-5.9-1.9-1.4-6.4-1.4zm56.4-18.8v74.4h-20.9v-74.4zm45.2 55.6v18.8h-60.4v-18.8zm-1.7-27.9v18.6h-58.7v-18.6zm1.7-27.7v18.8h-60.4v-18.8zm42.8 31.4l-17.9 43h-23.5l32.1-74.4h29.9l32.2 74.4h-24l-17.7-43-4.8-12.5h-1.5zm32.4 10.4v18.8h-54.8v-18.8zm68-41.8v74.4h-20.8v-74.4zm26.2 0v18.7h-73.4v-18.7zm25.9 0v74.4h-20.9v-74.4zm91.9 0l-29.9 74.4h-29.9l-29.9-74.4h25.2l19.2 53.3h1.4l18.8-53.3zm23.1 0v74.4h-20.9v-74.4zm45.2 55.6v18.8h-60.4v-18.8zm-1.6-28v18.7h-58.8v-18.7zm1.7-27.6v18.7h-60.4v-18.7zm52.6 32.5v17.8h-46.7v-17.8zm27.5-32.5v74.4h-20.8v-74.4zm43.9 29.8v18.7h-59.1v-18.7zm1.6-29.8v18.7h-60.8v-18.7zm26.3 49v25.4h-20.9v-74.4h43.4q9.9 0 16.6 2.7 6.6 2.6 10 7.7 3.4 5 3.4 12.3 0 5.9-2.1 10.3-2 4.2-6.4 6.8-4.5 2.6-11.6 3.5v1.1q5.8 1.4 8.2 4.3 2.6 2.8 4.7 7l9.2 18.7h-24.1l-8.9-18.2q-1.3-2.8-2.7-4.4-1.5-1.5-3.8-2.1-2.4-0.7-6.5-0.7zm22.4-30.3h-22.4v14.8h22.4q4.5 0 6.4-1.3 1.9-1.4 1.9-6.1 0-4.5-1.9-5.9-1.9-1.5-6.4-1.5zm75.5 56.8q-12.8 0-22.2-4.7-9.2-4.8-14.1-13.3-4.8-8.7-4.8-20.3 0-11.7 4.8-20.2 4.9-8.7 14.1-13.3 9.4-4.8 22.2-4.8 13.4 0 22.6 4.8 9.3 4.6 14.2 13.3 4.9 8.5 4.9 20.2 0 11.6-4.9 20.3-4.9 8.5-14.2 13.3-9.2 4.7-22.6 4.7zm0-20q7.6 0 11.8-1.5 4.2-1.5 5.9-5.5 1.8-4 1.8-11.3 0-7.5-1.8-11.3-1.7-4-5.9-5.5-4.2-1.5-11.8-1.5-7.5 0-11.6 1.5-4.1 1.5-5.8 5.5-1.5 3.8-1.5 11.3 0 7.3 1.5 11.3 1.7 4 5.8 5.5 4.1 1.5 11.6 1.5zm68.1-10.2v29.1h-20.9v-74.4h22.2l20.7 27.8 10.8 17.1h1.5l-1-16.2v-28.7h20.9v74.4h-22.2l-22-28.7-9.5-14.6h-1.4zm106.3-45.3v74.3h-20.8v-74.3zm26.2 0v18.7h-73.4v-18.7z"/>
</svg>